<svg width="70" height="70" viewBox="0 0 70 70" fill="none" xmlns="http://www.w3.org/2000/svg">
<path d="M5.83337 58.3333H11.6667M11.6667 58.3333H26.25M11.6667 58.3333V21C11.6667 17.7333 11.6667 16.1 12.3025 14.8516C12.8625 13.752 13.7521 12.8625 14.8517 12.3025C16.1 11.6666 17.7334 11.6666 21 11.6666H25.6667C28.9334 11.6666 30.5667 11.6666 31.8121 12.3025C32.9117 12.8625 33.8071 13.752 34.3642 14.8516C35 16.097 35 17.7304 35 20.9912V29.1666M26.25 58.3333H58.3334M26.25 58.3333V41.9066C26.25 40.3754 26.25 39.6083 26.4338 38.8937C26.5971 38.2608 26.8655 37.66 27.2271 37.1145C27.6355 36.502 28.2071 35.9858 29.3446 34.965L36.0588 28.9333C38.2609 26.9558 39.3634 25.967 40.6088 25.5908C41.7064 25.2601 42.877 25.2601 43.9746 25.5908C45.223 25.967 46.3255 26.9558 48.5305 28.9362L55.2388 34.965C56.3763 35.9858 56.945 36.502 57.3563 37.1145C57.718 37.66 57.9863 38.2608 58.1467 38.8937C58.3334 39.6083 58.3334 40.3754 58.3334 41.9066V58.3333M58.3334 58.3333H64.1667" stroke="#0057FF" stroke-width="5" stroke-linecap="round" stroke-linejoin="round"/>
</svg>
