<svg width="24" height="24" viewBox="0 0 24 24" fill="none" xmlns="http://www.w3.org/2000/svg">
<g clip-path="url(#clip0_59_457)">
<path d="M12 0C8.73825 0 8.33174 0.01575 7.05524 0.06975C5.77349 0.13275 4.9065 0.3315 4.1415 0.6285C3.34084 0.930765 2.61574 1.40401 2.01675 2.01525C1.4038 2.61285 0.930293 3.33835 0.629995 4.14C0.332995 4.905 0.134245 5.772 0.0712454 7.05375C0.0134954 8.331 0.00149536 8.73675 0.00149536 11.9985C0.00149536 15.2603 0.0172454 15.6667 0.0712454 16.9432C0.134245 18.2213 0.332995 19.092 0.629995 19.857C0.932261 20.6577 1.40551 21.3828 2.01675 21.9818C2.61434 22.5947 3.33984 23.0682 4.1415 23.3685C4.9065 23.6618 5.77724 23.8643 7.05524 23.9272C8.33249 23.985 8.73825 23.997 12 23.997C15.2617 23.997 15.6682 23.9813 16.9447 23.9272C18.2227 23.8643 19.0935 23.661 19.8585 23.3685C20.6591 23.0662 21.3842 22.593 21.9832 21.9818C22.597 21.3848 23.0706 20.6591 23.37 19.857C23.6632 19.092 23.8657 18.2213 23.9287 16.9432C23.9865 15.666 23.9985 15.2603 23.9985 11.9985C23.9985 8.73675 23.9827 8.33025 23.9287 7.05375C23.8657 5.77575 23.6625 4.9005 23.37 4.14C23.0677 3.33935 22.5945 2.61425 21.9832 2.01525C21.3863 1.40152 20.6606 0.927885 19.8585 0.6285C19.0935 0.3315 18.2227 0.13275 16.9447 0.06975C15.6675 0.012 15.2617 0 12 0ZM12 2.16C15.2032 2.16 15.5857 2.17575 16.8517 2.22975C18.0195 2.2845 18.6555 2.4795 19.0777 2.6445C19.5998 2.83719 20.0722 3.14389 20.4607 3.54225C20.8584 3.92912 21.164 4.40051 21.3547 4.9215C21.5197 5.34375 21.7147 5.97975 21.7695 7.1475C21.8235 8.4135 21.8392 8.79675 21.8392 11.9992C21.8392 15.2017 21.8235 15.585 21.765 16.851C21.702 18.0188 21.507 18.6548 21.3427 19.077C21.1155 19.6403 20.862 20.034 20.4435 20.46C20.0537 20.8559 19.5815 21.1611 19.0605 21.354C18.6435 21.519 17.9985 21.714 16.8262 21.7687C15.5535 21.8228 15.1785 21.8385 11.967 21.8385C8.7555 21.8385 8.38124 21.8228 7.10699 21.7642C5.93924 21.7013 5.295 21.5063 4.87275 21.342C4.30275 21.1147 3.912 20.8612 3.4935 20.4427C3.07125 20.0205 2.80275 19.6185 2.59575 19.0597C2.42775 18.6427 2.23575 17.9977 2.1735 16.8255C2.13075 15.5677 2.1105 15.1778 2.1105 11.9813C2.1105 8.78625 2.13075 8.3955 2.1735 7.122C2.23575 5.94975 2.42775 5.30625 2.59575 4.88775C2.80275 4.317 3.072 3.927 3.4935 3.50475C3.91125 3.087 4.30275 2.817 4.87275 2.6055C5.295 2.44125 5.9235 2.24625 7.09575 2.18775C8.36849 2.142 8.74349 2.1255 11.9505 2.1255L12 2.16ZM12 5.84025C11.191 5.83995 10.3899 5.99908 9.64241 6.30853C8.89494 6.61798 8.21578 7.0717 7.64373 7.64374C7.07169 8.21578 6.61798 8.89495 6.30853 9.64242C5.99907 10.3899 5.83995 11.191 5.84025 12C5.83995 12.809 5.99907 13.6101 6.30853 14.3576C6.61798 15.1051 7.07169 15.7842 7.64373 16.3563C8.21578 16.9283 8.89494 17.382 9.64241 17.6915C10.3899 18.0009 11.191 18.16 12 18.1597C12.809 18.16 13.6101 18.0009 14.3576 17.6915C15.105 17.382 15.7842 16.9283 16.3563 16.3563C16.9283 15.7842 17.382 15.1051 17.6915 14.3576C18.0009 13.6101 18.16 12.809 18.1597 12C18.16 11.191 18.0009 10.3899 17.6915 9.64242C17.382 8.89495 16.9283 8.21578 16.3563 7.64374C15.7842 7.0717 15.105 6.61798 14.3576 6.30853C13.6101 5.99908 12.809 5.83995 12 5.84025ZM12 15.9998C9.78899 15.9998 8.00024 14.211 8.00024 12C8.00024 9.789 9.78899 8.00025 12 8.00025C14.211 8.00025 15.9997 9.789 15.9997 12C15.9997 14.211 14.211 15.9998 12 15.9998ZM19.848 5.59425C19.8476 5.9765 19.6955 6.34296 19.425 6.6131C19.1546 6.88326 18.788 7.035 18.4057 7.035C18.2167 7.035 18.0296 6.99777 17.855 6.92544C17.6803 6.85311 17.5217 6.7471 17.388 6.61345C17.2544 6.47981 17.1484 6.32115 17.076 6.14653C17.0037 5.97191 16.9665 5.78475 16.9665 5.59575C16.9665 5.40674 17.0037 5.21959 17.076 5.04497C17.1484 4.87036 17.2544 4.71169 17.388 4.57805C17.5217 4.4444 17.6803 4.33839 17.855 4.26606C18.0296 4.19373 18.2167 4.1565 18.4057 4.1565C19.1985 4.1565 19.848 4.8015 19.848 5.59425Z" fill="#4F4F4F"/>
</g>
<defs>
<clipPath id="clip0_59_457">
<rect width="24" height="24" fill="white"/>
</clipPath>
</defs>
</svg>
