<svg width="71" height="70" viewBox="0 0 71 70" fill="none" xmlns="http://www.w3.org/2000/svg">
<g clip-path="url(#clip0_165_168)">
<path d="M9.25 61.25C9.25 61.8652 9.36393 62.4349 9.5918 62.959C9.81966 63.483 10.1273 63.9388 10.5146 64.3261C10.902 64.7135 11.3691 65.0325 11.916 65.2832C12.4629 65.5338 13.0326 65.6478 13.625 65.625H35.5V70H13.625C12.4173 70 11.2894 69.7721 10.2412 69.3164C9.19303 68.8606 8.25879 68.234 7.43848 67.4365C6.61816 66.639 5.99154 65.7161 5.55859 64.6679C5.12565 63.6198 4.89779 62.4804 4.875 61.25V17.5H13.625V13.125C13.625 11.3248 13.9668 9.62725 14.6504 8.0322C15.334 6.43714 16.2682 5.04717 17.4531 3.86227C18.638 2.67738 20.028 1.73174 21.623 1.02536C23.2181 0.31898 24.9271 -0.022817 26.75 -3.05176e-05C29.1198 -3.05176e-05 31.3187 0.592417 33.3467 1.77731C35.3747 0.592417 37.5508 -3.05176e-05 39.875 -3.05176e-05C41.6751 -3.05176e-05 43.3727 0.341766 44.9678 1.02536C46.5628 1.70895 47.9528 2.6432 49.1377 3.82809C50.3226 5.01299 51.2682 6.41436 51.9746 8.0322C52.681 9.65003 53.0228 11.3476 53 13.125V17.5H61.75V21.875H9.25V61.25ZM48.625 13.125C48.625 11.9173 48.3971 10.7894 47.9414 9.74118C47.4857 8.693 46.8591 7.75876 46.0615 6.93845C45.264 6.11813 44.3411 5.49151 43.293 5.05856C42.2448 4.62562 41.1055 4.39776 39.875 4.37497C38.8496 4.37497 37.8812 4.54587 36.9697 4.88766C37.6305 5.70798 38.1546 6.5169 38.542 7.31442C38.9294 8.11195 39.2142 8.90947 39.3965 9.707C39.5788 10.5045 39.7041 11.3134 39.7725 12.1338C39.8408 12.9541 39.875 13.8313 39.875 14.7656V17.5H48.625V13.125ZM18 17.5H35.5V13.125C35.5 11.9173 35.2721 10.7894 34.8164 9.74118C34.3607 8.693 33.7341 7.75876 32.9365 6.93845C32.139 6.11813 31.2161 5.49151 30.168 5.05856C29.1198 4.62562 27.9805 4.39776 26.75 4.37497C25.5423 4.37497 24.4144 4.60283 23.3662 5.05856C22.318 5.51429 21.3838 6.14092 20.5635 6.93845C19.7432 7.73597 19.1165 8.65882 18.6836 9.707C18.2507 10.7552 18.0228 11.8945 18 13.125V17.5ZM66.125 26.25C66.7402 26.25 67.3099 26.3639 67.834 26.5918C68.3581 26.8196 68.8138 27.1272 69.2012 27.5146C69.5885 27.902 69.9076 28.3691 70.1582 28.916C70.4089 29.4629 70.5228 30.0325 70.5 30.625V70H39.875V30.625C39.875 30.0097 39.9889 29.4401 40.2168 28.916C40.4447 28.3919 40.7523 27.9362 41.1397 27.5488C41.527 27.1614 41.9941 26.8424 42.541 26.5918C43.0879 26.3411 43.6576 26.2272 44.25 26.25H66.125ZM66.125 30.625H44.25V65.625H66.125V30.625ZM61.75 61.25H48.625V56.875H61.75V61.25ZM61.75 52.5H48.625V48.125H61.75V52.5ZM61.75 39.375H48.625V35H61.75V39.375Z" fill="#0057FF"/>
</g>
<defs>
<clipPath id="clip0_165_168">
<rect width="70" height="70" fill="white" transform="translate(0.5)"/>
</clipPath>
</defs>
</svg>
