<svg width="55" height="55" viewBox="0 0 55 55" fill="none" xmlns="http://www.w3.org/2000/svg">
<rect width="55" height="55" rx="27.5" fill="#CDDEFF"/>
<rect x="12.5" y="13" width="30" height="29" rx="9" stroke="#0057FF" stroke-width="2"/>
<path d="M17.5 34C18.6046 34 19.5 33.1046 19.5 32C19.5 30.8954 18.6046 30 17.5 30C16.3954 30 15.5 30.8954 15.5 32C15.5 33.1046 16.3954 34 17.5 34Z" stroke="#0057FF" stroke-width="2" stroke-linecap="round" stroke-linejoin="round"/>
<path d="M25.5 26C26.6046 26 27.5 25.1046 27.5 24C27.5 22.8954 26.6046 22 25.5 22C24.3954 22 23.5 22.8954 23.5 24C23.5 25.1046 24.3954 26 25.5 26Z" stroke="#0057FF" stroke-width="2" stroke-linecap="round" stroke-linejoin="round"/>
<path d="M30.5 32C31.6046 32 32.5 31.1046 32.5 30C32.5 28.8954 31.6046 28 30.5 28C29.3954 28 28.5 28.8954 28.5 30C28.5 31.1046 29.3954 32 30.5 32Z" stroke="#0057FF" stroke-width="2" stroke-linecap="round" stroke-linejoin="round"/>
<path d="M37.5 25C38.6046 25 39.5 24.1046 39.5 23C39.5 21.8954 38.6046 21 37.5 21C36.3954 21 35.5 21.8954 35.5 23C35.5 24.1046 36.3954 25 37.5 25Z" stroke="#0057FF" stroke-width="2" stroke-linecap="round" stroke-linejoin="round"/>
<path d="M36.5 24L32.52 27.6909M26.755 25.1431L29.5017 27.6903M18.5 30L23.7379 25.1425" stroke="#0057FF" stroke-width="2" stroke-linecap="round" stroke-linejoin="round"/>
</svg>
