<svg width="56" height="55" viewBox="0 0 56 55" fill="none" xmlns="http://www.w3.org/2000/svg">
<rect x="0.5" width="55" height="55" rx="27.5" fill="#CDDEFF"/>
<rect x="15" y="14.4883" width="26" height="26.0234" rx="7" stroke="#0057FF" stroke-width="2"/>
<path d="M21.2862 34.2032L26.1593 29.3302M32.2958 27.1632L30.8371 31.5393C30.8138 31.6094 30.774 31.6729 30.7209 31.7244C30.6678 31.7758 30.6032 31.8137 30.5323 31.8349L21.5902 34.4927C21.5097 34.5166 21.4241 34.518 21.3428 34.4966C21.2615 34.4753 21.1876 34.4321 21.1292 34.3717C21.0708 34.3113 21.03 34.236 21.0114 34.1541C20.9928 34.0721 20.997 33.9866 21.0236 33.9069L23.9272 25.1976C23.948 25.1351 23.982 25.0777 24.027 25.0295C24.0719 24.9813 24.1267 24.9433 24.1876 24.9181L28.3125 23.2197C28.3964 23.1851 28.4886 23.1761 28.5776 23.1938C28.6666 23.2115 28.7483 23.2552 28.8125 23.3193L32.1848 26.693C32.2451 26.7534 32.2874 26.8293 32.3071 26.9123C32.3267 26.9954 32.3228 27.0822 32.2958 27.1632Z" stroke="#0057FF" stroke-linecap="round" stroke-linejoin="round"/>
<path d="M32.3861 26.8936L34.5516 24.7274C34.8387 24.4402 35 24.0507 35 23.6446C35 23.2386 34.8387 22.8491 34.5516 22.5619L32.9283 20.9371C32.7861 20.7948 32.6172 20.6819 32.4314 20.6049C32.2455 20.5279 32.0463 20.4883 31.8452 20.4883C31.644 20.4883 31.4448 20.5279 31.259 20.6049C31.0731 20.6819 30.9043 20.7948 30.762 20.9371L28.5966 23.1033M27.7834 27.7053C27.6767 27.5986 27.5501 27.514 27.4107 27.4563C27.2713 27.3987 27.1219 27.369 26.9711 27.369C26.8202 27.3691 26.6709 27.3988 26.5315 27.4566C26.3922 27.5143 26.2656 27.599 26.1589 27.7056C26.0523 27.8123 25.9677 27.939 25.91 28.0784C25.8523 28.2177 25.8226 28.3671 25.8227 28.518C25.8227 28.6688 25.8524 28.8182 25.9102 28.9575C25.968 29.0969 26.0526 29.2235 26.1593 29.3301C26.3748 29.5455 26.667 29.6664 26.9716 29.6664C27.2763 29.6663 27.5684 29.5452 27.7838 29.3297C27.9991 29.1143 28.1201 28.8221 28.12 28.5174C28.12 28.2128 27.9989 27.9206 27.7834 27.7053Z" stroke="#0057FF" stroke-linecap="round" stroke-linejoin="round"/>
</svg>
