<svg width="56" height="55" viewBox="0 0 56 55" fill="none" xmlns="http://www.w3.org/2000/svg">
<rect x="0.5" width="55" height="55" rx="27.5" fill="#CDDEFF"/>
<path d="M28.5 18.875C32.3208 18.875 35.6167 21.5488 36.3604 25.2431L36.7979 27.3994L39.0292 27.5575C40.1255 27.6302 41.1531 28.1095 41.9053 28.899C42.6575 29.6884 43.0784 30.7294 43.0833 31.8125C43.0833 34.1844 41.1146 36.125 38.7083 36.125H19.75C16.5271 36.125 13.9167 33.5519 13.9167 30.375C13.9167 27.4281 16.1479 24.97 19.1083 24.6681L20.6688 24.51L21.3979 23.1444C22.0686 21.8575 23.0865 20.778 24.3396 20.0247C25.5926 19.2714 27.0323 18.8736 28.5 18.875ZM28.5 16C24.2854 16 20.625 18.3575 18.8021 21.8075C16.6587 22.0358 14.6765 23.0369 13.2363 24.6183C11.7962 26.1997 10.9997 28.2499 11 30.375C11 35.1331 14.9229 39 19.75 39H38.7083C42.7333 39 46 35.78 46 31.8125C46 28.0175 43.0104 24.9412 39.2188 24.6825C38.7289 22.2355 37.3923 20.032 35.4374 18.4484C33.4824 16.8648 31.0304 15.9994 28.5 16Z" fill="#0057FF"/>
</svg>
