<svg width="70" height="70" viewBox="0 0 70 70" fill="none" xmlns="http://www.w3.org/2000/svg">
<rect x="2.25" y="2.25" width="65.5" height="65.5" rx="17.75" stroke="#0057FF" stroke-width="4.5"/>
<path d="M16.1222 54.108L29.9067 40.3235M47.2651 34.1937L43.1388 46.5725C43.073 46.7709 42.9602 46.9505 42.8101 47.096C42.6601 47.2416 42.4771 47.3488 42.2767 47.4085L16.9821 54.9267C16.7542 54.9944 16.5121 54.9983 16.2822 54.938C16.0523 54.8776 15.8433 54.7554 15.678 54.5845C15.5127 54.4136 15.3975 54.2007 15.3448 53.9689C15.2921 53.7371 15.304 53.4953 15.3793 53.2698L23.5928 28.6336C23.6516 28.4567 23.7479 28.2945 23.8749 28.1581C24.002 28.0217 24.1569 27.9142 24.3292 27.843L35.9975 23.0388C36.2347 22.9408 36.4956 22.9153 36.7473 22.9654C36.999 23.0155 37.2303 23.139 37.4119 23.3204L46.951 32.8638C47.1217 33.0344 47.2415 33.2493 47.2969 33.4841C47.3524 33.719 47.3414 33.9647 47.2651 34.1937Z" stroke="#0057FF" stroke-width="4.5" stroke-linecap="round" stroke-linejoin="round"/>
<path d="M47.5206 33.4313L53.646 27.3037C54.4582 26.4913 54.9144 25.3896 54.9144 24.2409C54.9144 23.0922 54.4582 21.9906 53.646 21.1782L49.0541 16.5819C48.6518 16.1795 48.1742 15.8602 47.6485 15.6424C47.1228 15.4246 46.5593 15.3125 45.9903 15.3125C45.4212 15.3125 44.8578 15.4246 44.3321 15.6424C43.8064 15.8602 43.3287 16.1795 42.9265 16.5819L36.801 22.7096M34.5007 35.7273C34.1989 35.4256 33.8406 35.1864 33.4464 35.0232C33.0521 34.86 32.6296 34.776 32.2029 34.7761C31.7762 34.7762 31.3537 34.8604 30.9595 35.0238C30.5653 35.1871 30.2072 35.4266 29.9055 35.7284C29.6038 36.0302 29.3646 36.3884 29.2014 36.7827C29.0382 37.1769 28.9542 37.5995 28.9543 38.0262C28.9544 38.4529 29.0386 38.8754 29.202 39.2696C29.3654 39.6638 29.6048 40.0219 29.9066 40.3236C30.5161 40.9328 31.3426 41.2749 32.2044 41.2747C33.0662 41.2745 33.8926 40.932 34.5018 40.3225C35.111 39.713 35.4531 38.8864 35.4529 38.0247C35.4527 37.1629 35.1102 36.3365 34.5007 35.7273Z" stroke="#0057FF" stroke-width="4.5" stroke-linecap="round" stroke-linejoin="round"/>
</svg>
