<svg width="71" height="70" viewBox="0 0 71 70" fill="none" xmlns="http://www.w3.org/2000/svg">
<path d="M12.1666 58.3334C10.5624 58.3334 9.18964 57.7627 8.04825 56.6213C6.90686 55.4799 6.3352 54.1061 6.33325 52.5V17.5C6.33325 15.8959 6.90492 14.5231 8.04825 13.3817C9.19159 12.2403 10.5644 11.6686 12.1666 11.6667H29.6666L35.4999 17.5H58.8332C60.4374 17.5 61.8112 18.0717 62.9545 19.215C64.0978 20.3584 64.6685 21.7311 64.6666 23.3334V32.9584C63.743 32.5695 62.7834 32.3147 61.7878 32.1942C60.7923 32.0736 59.8074 32.0853 58.8332 32.2292V23.3334H33.0937L27.2603 17.5H12.1666V52.5H35.7916L35.4999 52.7917V58.3334H12.1666ZM41.3333 64.1667V55.1979L57.4478 39.1563C57.8853 38.7188 58.3714 38.4028 58.9062 38.2084C59.4409 38.0139 59.9756 37.9167 60.5103 37.9167C61.0937 37.9167 61.6527 38.0265 62.1874 38.2463C62.7221 38.466 63.2082 38.7936 63.6457 39.2292L66.3437 41.9271C66.7326 42.3646 67.0369 42.8507 67.2566 43.3854C67.4763 43.9202 67.5852 44.4549 67.5832 44.9896C67.5832 45.5243 67.486 46.0717 67.2916 46.6317C67.0971 47.1917 66.7812 47.6895 66.3437 48.125L50.302 64.1667H41.3333ZM45.7082 59.7917H48.4791L57.302 50.8959L55.9895 49.5104L54.6041 48.1979L45.7082 57.0209V59.7917ZM55.9895 49.5104L54.6041 48.1979L57.302 50.8959L55.9895 49.5104Z" fill="#0057FF"/>
</svg>
