<svg width="70" height="70" viewBox="0 0 70 70" fill="none" xmlns="http://www.w3.org/2000/svg">
<path d="M63.3209 25.4042C66.9667 21.7584 65.3042 17.5 63.3209 15.4292L54.5709 6.67918C50.8959 3.03335 46.6667 4.69585 44.5959 6.67918L39.6375 11.6667H32.0834C26.5417 11.6667 23.3334 14.5834 21.7 17.9375L8.75002 30.8875V42.5542L6.67918 44.5959C3.03335 48.2709 4.69585 52.5 6.67918 54.5709L15.4292 63.3209C17.0042 64.8959 18.6959 65.4792 20.3 65.4792C22.3708 65.4792 24.2667 64.4584 25.4042 63.3209L33.2792 55.4167H43.75C48.7084 55.4167 51.2167 52.325 52.1209 49.2917C55.4167 48.4167 57.225 45.9084 57.9542 43.4584C62.475 42.2917 64.1667 38.0042 64.1667 35V26.25H62.4459L63.3209 25.4042ZM58.3334 35C58.3334 36.3125 57.7792 37.9167 55.4167 37.9167H52.5V40.8334C52.5 42.1459 51.9459 43.75 49.5834 43.75H46.6667V46.6667C46.6667 47.9792 46.1125 49.5834 43.75 49.5834H30.8875L21.3209 59.15C20.4167 59.9959 19.8917 59.5 19.5709 59.1792L10.85 50.4875C10.0042 49.5834 10.5 49.0583 10.8209 48.7375L14.5834 44.9459V33.2792L20.4167 27.4459V32.0834C20.4167 35.6125 22.75 40.8334 29.1667 40.8334C35.5834 40.8334 37.9167 35.6125 37.9167 32.0834H58.3334V35ZM59.1792 21.2625L54.2209 26.25H32.0834V32.0834C32.0834 33.3959 31.5292 35 29.1667 35C26.8042 35 26.25 33.3959 26.25 32.0834V23.3334C26.25 21.9917 26.7459 17.5 32.0834 17.5H42.0292L48.6792 10.85C49.5834 10.0042 50.1084 10.5 50.4292 10.8209L59.15 19.5125C59.9959 20.4167 59.5 20.9417 59.1792 21.2625Z" fill="#0057FF"/>
</svg>
