<svg width="70" height="70" viewBox="0 0 70 70" fill="none" xmlns="http://www.w3.org/2000/svg">
<path d="M29.1666 17H29.1672C30.9064 17.0021 32.4069 17.627 33.6414 18.8614C34.8757 20.0958 35.4998 21.5953 35.4999 23.3327C35.4999 23.3329 35.4999 23.3331 35.4999 23.3333H34.9999C35.0019 24.9394 34.4312 26.3132 33.2878 27.4546C32.1445 28.596 30.7708 29.1667 29.1666 29.1667V17ZM29.1666 17C27.4286 17 25.9288 17.6252 24.6944 18.8617C23.4604 20.0978 22.8354 21.597 22.8333 23.3327V23.3333C22.8333 25.0713 23.4584 26.5719 24.6947 27.8081C25.9308 29.0443 27.4304 29.6686 29.1666 29.6667V17ZM63.6666 13.1242V13.125V30.625C63.6666 31.7094 63.2932 32.6154 62.538 33.3723C61.7836 34.1285 60.8783 34.5017 59.7924 34.5H59.7916C58.7072 34.5 57.8024 34.1266 57.0476 33.3719C56.2928 32.6171 55.9183 31.711 55.9166 30.6242V13.125C55.9166 12.041 56.2907 11.1363 57.0472 10.3815C57.8044 9.62605 58.7097 9.25183 59.792 9.25C60.8758 9.25009 61.7816 9.62419 62.5384 10.3811C63.2954 11.138 63.6683 12.0426 63.6666 13.1242ZM47.6095 42.8847L47.6096 42.8847C48.9834 43.5716 50.0539 44.5634 50.8308 45.8668C51.61 47.174 51.9999 48.6038 51.9999 50.1667V57.8333H6.33325V50.1667C6.33325 48.6017 6.72323 47.172 7.50217 45.8671C8.2791 44.5655 9.34979 43.5734 10.724 42.8845C13.6079 41.4426 16.5997 40.3374 19.6998 39.5686C22.7966 38.8007 25.9518 38.4167 29.1666 38.4167C32.3833 38.4167 35.5395 38.8007 38.6362 39.5686C41.7366 40.3375 44.7275 41.4427 47.6095 42.8847ZM47.8333 42.4375C49.2916 43.1667 50.4339 44.2244 51.2603 45.6108C52.0867 46.9972 52.4999 48.5158 52.4999 50.1667V57.8333L47.8333 42.4375ZM11.1666 52.5V53H11.6666H46.6666H47.1666V52.5V50.1667C47.1666 49.553 47.0262 48.9824 46.7391 48.4655C46.4431 47.9328 46.0008 47.5251 45.4334 47.2411C42.9215 45.9607 40.299 44.9756 37.5664 44.286C34.8289 43.5952 32.0286 43.25 29.1666 43.25C26.3065 43.25 23.5062 43.5952 20.7668 44.286C18.0323 44.9756 15.4096 45.9607 12.8995 47.2412C12.3322 47.5252 11.89 47.9329 11.5941 48.4655C11.3069 48.9824 11.1666 49.553 11.1666 50.1667V52.5ZM29.1666 34.5C26.0919 34.5 23.4723 33.4111 21.2806 31.2194C19.0889 29.0277 17.9999 26.408 17.9999 23.3333C17.9999 20.2587 19.0889 17.639 21.2806 15.4473C23.4723 13.2556 26.0919 12.1667 29.1666 12.1667C32.2413 12.1667 34.8609 13.2556 37.0526 15.4473C39.2443 17.639 40.3333 20.2587 40.3333 23.3333C40.3333 26.408 39.2443 29.0277 37.0526 31.2194C34.8609 33.4111 32.2413 34.5 29.1666 34.5Z" fill="#0057FF" stroke="#0057FF"/>
</svg>
