<svg width="70" height="70" viewBox="0 0 70 70" fill="none" xmlns="http://www.w3.org/2000/svg">
<path d="M5.83325 35C5.83325 21.2508 5.83325 14.3763 10.1033 10.1033C14.3791 5.83334 21.2508 5.83334 34.9999 5.83334C48.7491 5.83334 55.6237 5.83334 59.8937 10.1033C64.1666 14.3792 64.1666 21.2508 64.1666 35C64.1666 48.7492 64.1666 55.6238 59.8937 59.8938C55.6266 64.1667 48.7491 64.1667 34.9999 64.1667C21.2508 64.1667 14.3762 64.1667 10.1033 59.8938C5.83325 55.6267 5.83325 48.7492 5.83325 35Z" stroke="#0057FF" stroke-width="5"/>
<path d="M49.5832 43.75H34.9998M20.4165 29.1667L21.099 29.7354C24.8382 32.8504 26.7078 34.4079 26.7078 36.4584C26.7078 38.5088 24.8411 40.0663 21.099 43.1813L20.4165 43.75" stroke="#0057FF" stroke-width="5" stroke-linecap="round"/>
</svg>
