<svg width="56" height="55" viewBox="0 0 56 55" fill="none" xmlns="http://www.w3.org/2000/svg">
<rect x="0.5" width="55" height="55" rx="27.5" fill="#CDDEFF"/>
<path d="M14 27.7084C14 21.2462 14 18.0152 16.0069 16.0069C18.0165 14 21.2462 14 27.7084 14C34.1705 14 37.4015 14 39.4084 16.0069C41.4167 18.0165 41.4167 21.2462 41.4167 27.7084C41.4167 34.1705 41.4167 37.4015 39.4084 39.4084C37.4029 41.4167 34.1705 41.4167 27.7084 41.4167C21.2462 41.4167 18.0152 41.4167 16.0069 39.4084C14 37.4029 14 34.1705 14 27.7084Z" stroke="#0057FF" stroke-width="2"/>
<path d="M34.5625 31.8209H27.7084M20.8542 24.9667L21.175 25.234C22.9324 26.698 23.8111 27.4301 23.8111 28.3938C23.8111 29.3575 22.9337 30.0895 21.175 31.5535L20.8542 31.8209" stroke="#0057FF" stroke-width="2" stroke-linecap="round"/>
</svg>
