<svg width="55" height="55" viewBox="0 0 55 55" fill="none" xmlns="http://www.w3.org/2000/svg">
<rect width="55" height="55" rx="27.5" fill="#CDDEFF"/>
<path d="M15 27.5C15 21.6075 15 18.6613 16.83 16.83C18.6625 15 21.6075 15 27.5 15C33.3925 15 36.3387 15 38.1687 16.83C40 18.6625 40 21.6075 40 27.5C40 33.3925 40 36.3387 38.1687 38.1687C36.34 40 33.3925 40 27.5 40C21.6075 40 18.6613 40 16.83 38.1687C15 36.34 15 33.3925 15 27.5Z" stroke="#0057FF" stroke-width="2"/>
<g clip-path="url(#clip0_48_247)">
<path d="M23.1428 35.75L18.6428 31.5L23.1428 27.25M30.8571 35.75L35.3571 31.5L30.8571 27.25" stroke="#0057FF" stroke-width="2" stroke-linecap="round" stroke-linejoin="round"/>
</g>
<path d="M16 21H39" stroke="#0057FF" stroke-width="2" stroke-linecap="round"/>
<defs>
<clipPath id="clip0_48_247">
<rect width="18" height="17" fill="white" transform="translate(18 23)"/>
</clipPath>
</defs>
</svg>
