<svg width="108" height="32" viewBox="0 0 108 32" fill="none" xmlns="http://www.w3.org/2000/svg">
<path d="M8.44444 14.999C8.44444 12.73 9.34583 10.5538 10.9503 8.94936C12.5548 7.34488 14.7309 6.4435 17 6.4435C19.2691 6.4435 21.4452 7.34488 23.0497 8.94936C24.6541 10.5538 25.5555 12.73 25.5555 14.999C25.5555 15.3232 25.6843 15.6341 25.9135 15.8633C26.1427 16.0925 26.4536 16.2213 26.7778 16.2213C27.1019 16.2213 27.4128 16.0925 27.642 15.8633C27.8712 15.6341 28 15.3232 28 14.999C27.9998 13.1231 27.5199 11.2784 26.6058 9.64016C25.6917 8.00197 24.3739 6.62477 22.7775 5.63946C21.1812 4.65415 19.3594 4.09347 17.4852 4.01071C15.6111 3.92795 13.747 4.32587 12.07 5.16664C10.393 6.00741 8.95889 7.26309 7.90398 8.81433C6.84907 10.3656 6.20841 12.1608 6.0429 14.0295C5.87739 15.8981 6.19252 17.778 6.95834 19.4905C7.72416 21.203 8.91523 22.6913 10.4183 23.8137C11.7073 24.7765 13.1917 25.4449 14.767 25.7717C14.9858 26.2625 15.3603 26.6676 15.8325 26.9242C16.3047 27.1807 16.8483 27.2746 17.3791 27.1911C17.91 27.1077 18.3986 26.8516 18.7693 26.4626C19.14 26.0735 19.3722 25.5731 19.4299 25.0388C19.4876 24.5045 19.3676 23.9661 19.0885 23.5068C18.8095 23.0476 18.3868 22.6931 17.886 22.4983C17.3851 22.3034 16.8341 22.279 16.318 22.4289C15.8019 22.5787 15.3496 22.8945 15.031 23.3273C13.1556 22.8837 11.4849 21.8201 10.2895 20.3085C9.09403 18.797 8.44392 16.9262 8.44444 14.999ZM9.66667 14.999C9.66715 13.6499 10.0398 12.3271 10.7435 11.1761C11.4473 10.0251 12.455 9.09061 13.6556 8.47535C14.8562 7.86008 16.2033 7.58795 17.5486 7.68888C18.894 7.78981 20.1854 8.2599 21.2807 9.04743C22.3761 9.83495 23.233 10.9094 23.7572 12.1525C24.2814 13.3956 24.4524 14.7592 24.2516 16.0933C24.0508 17.4273 23.4858 18.6802 22.6189 19.7139C21.752 20.7476 20.6168 21.5221 19.3381 21.9523C18.6805 21.4079 17.8536 21.1101 17 21.1101C16.1114 21.1101 15.2974 21.4267 14.6619 21.9523C13.2059 21.4625 11.9405 20.5279 11.0442 19.2803C10.148 18.0327 9.66612 16.5352 9.66667 14.999Z" fill="#5B78FD"/>
<path d="M39.2333 8.89202H33.1293V6.12002H48.3613V8.89202H42.2573V26H39.2333V8.89202ZM54.8129 26.336C53.3942 26.336 52.1529 26.0187 51.0889 25.384C50.0249 24.7307 49.2035 23.816 48.6249 22.64C48.0462 21.464 47.7569 20.1013 47.7569 18.552C47.7569 17.0027 48.0369 15.64 48.5969 14.464C49.1755 13.288 49.9875 12.3827 51.0329 11.748C52.0969 11.0947 53.3289 10.768 54.7289 10.768C56.0915 10.768 57.2862 11.0853 58.3129 11.72C59.3395 12.336 60.1329 13.2413 60.6929 14.436C61.2715 15.612 61.5609 17.0213 61.5609 18.664V19.42H50.8649C50.9395 20.8573 51.3222 21.9493 52.0129 22.696C52.7035 23.424 53.6462 23.788 54.8409 23.788C55.6995 23.788 56.4182 23.592 56.9969 23.2C57.5942 22.7893 58.0142 22.2293 58.2569 21.52L61.3369 21.716C60.9449 23.116 60.1609 24.236 58.9849 25.076C57.8275 25.916 56.4369 26.336 54.8129 26.336ZM58.3969 17.18C58.3222 15.892 57.9582 14.9213 57.3049 14.268C56.6515 13.6147 55.7929 13.288 54.7289 13.288C53.6649 13.288 52.7969 13.624 52.1249 14.296C51.4529 14.968 51.0329 15.9293 50.8649 17.18H58.3969ZM69.9943 26.336C67.9596 26.336 66.3637 25.8787 65.2063 24.964C64.049 24.0493 63.4143 22.8267 63.3023 21.296L66.3823 21.156C66.6623 22.948 67.8663 23.844 69.9943 23.844C70.9463 23.844 71.6836 23.6947 72.2063 23.396C72.7476 23.0787 73.0183 22.6027 73.0183 21.968C73.0183 21.576 72.925 21.268 72.7383 21.044C72.5516 20.8013 72.2063 20.596 71.7023 20.428C71.1983 20.2413 70.4516 20.064 69.4623 19.896C67.9876 19.6347 66.8303 19.308 65.9903 18.916C65.1503 18.524 64.553 18.048 64.1983 17.488C63.8437 16.928 63.6663 16.228 63.6663 15.388C63.6663 13.988 64.189 12.868 65.2343 12.028C66.2797 11.188 67.745 10.768 69.6303 10.768C71.441 10.768 72.8783 11.2253 73.9423 12.14C75.0063 13.0547 75.6503 14.2307 75.8743 15.668L72.8223 15.836C72.673 15.0333 72.3183 14.408 71.7583 13.96C71.217 13.4933 70.4983 13.26 69.6023 13.26C68.669 13.26 67.9596 13.4467 67.4743 13.82C66.989 14.1747 66.7463 14.66 66.7463 15.276C66.7463 15.9293 66.989 16.4147 67.4743 16.732C67.9783 17.0493 68.8463 17.3107 70.0783 17.516C71.609 17.7587 72.813 18.076 73.6903 18.468C74.5676 18.8413 75.1836 19.308 75.5383 19.868C75.9116 20.4093 76.0983 21.1 76.0983 21.94C76.0983 23.3027 75.529 24.376 74.3903 25.16C73.2703 25.944 71.805 26.336 69.9943 26.336ZM84.528 26.336C82.4934 26.336 80.8974 25.8787 79.7401 24.964C78.5827 24.0493 77.9481 22.8267 77.8361 21.296L80.9161 21.156C81.1961 22.948 82.4001 23.844 84.528 23.844C85.48 23.844 86.2174 23.6947 86.74 23.396C87.2814 23.0787 87.552 22.6027 87.552 21.968C87.552 21.576 87.4587 21.268 87.272 21.044C87.0854 20.8013 86.74 20.596 86.236 20.428C85.732 20.2413 84.9854 20.064 83.996 19.896C82.5214 19.6347 81.3641 19.308 80.5241 18.916C79.6841 18.524 79.0867 18.048 78.7321 17.488C78.3774 16.928 78.2001 16.228 78.2001 15.388C78.2001 13.988 78.7227 12.868 79.7681 12.028C80.8134 11.188 82.2787 10.768 84.164 10.768C85.9747 10.768 87.412 11.2253 88.476 12.14C89.54 13.0547 90.184 14.2307 90.408 15.668L87.356 15.836C87.2067 15.0333 86.852 14.408 86.292 13.96C85.7507 13.4933 85.032 13.26 84.136 13.26C83.2027 13.26 82.4934 13.4467 82.0081 13.82C81.5227 14.1747 81.2801 14.66 81.2801 15.276C81.2801 15.9293 81.5227 16.4147 82.0081 16.732C82.5121 17.0493 83.3801 17.3107 84.612 17.516C86.1427 17.7587 87.3467 18.076 88.224 18.468C89.1014 18.8413 89.7174 19.308 90.072 19.868C90.4454 20.4093 90.632 21.1 90.632 21.94C90.632 23.3027 90.0627 24.376 88.924 25.16C87.804 25.944 86.3387 26.336 84.528 26.336ZM97.5752 26.336C96.0072 26.336 94.7658 25.9813 93.8512 25.272C92.9365 24.544 92.4792 23.5453 92.4792 22.276C92.4792 21.0067 92.8618 20.008 93.6272 19.28C94.3925 18.552 95.5965 18.0293 97.2392 17.712L102.363 16.732C102.363 14.436 101.299 13.288 99.1712 13.288C97.3232 13.288 96.2032 14.1187 95.8112 15.78L92.7312 15.584C93.0112 14.0907 93.7112 12.9147 94.8312 12.056C95.9698 11.1973 97.4165 10.768 99.1712 10.768C101.168 10.768 102.69 11.3093 103.735 12.392C104.799 13.456 105.331 14.9587 105.331 16.9V22.696C105.331 23.0507 105.396 23.3027 105.527 23.452C105.658 23.5827 105.863 23.648 106.143 23.648H106.675V26C106.488 26.056 106.124 26.084 105.583 26.084C104.706 26.084 104.024 25.8973 103.539 25.524C103.054 25.1507 102.746 24.544 102.615 23.704C102.242 24.488 101.598 25.1227 100.683 25.608C99.7685 26.0933 98.7325 26.336 97.5752 26.336ZM98.0792 23.984C99.3858 23.984 100.422 23.6107 101.187 22.864C101.971 22.1173 102.363 21.1373 102.363 19.924V18.972L98.0232 19.812C97.1458 19.98 96.5112 20.2413 96.1192 20.596C95.7458 20.9507 95.5592 21.4173 95.5592 21.996C95.5592 22.6307 95.7738 23.1253 96.2032 23.48C96.6512 23.816 97.2765 23.984 98.0792 23.984Z" fill="#5B78FD"/>
</svg>
