<svg width="89" height="33" viewBox="0 0 89 33" fill="none" xmlns="http://www.w3.org/2000/svg">
<path d="M18.5445 26.6421V9.36462L27.068 0.841064L26.8377 29.6369L24.3036 31.9405H13.7068L18.5445 26.6421Z" fill="#0C0B0B" stroke="#FFFDFB" stroke-width="0.691099"/>
<path d="M16.2408 17.4275H9.32981L0.34552 26.1814V31.9406H10.0209L16.2408 25.7207V17.4275Z" fill="#0C0B0B" stroke="#FFFDFB" stroke-width="0.691099"/>
<mask id="path-3-outside-1_358_2177" maskUnits="userSpaceOnUse" x="31.7539" y="8.67871" width="57" height="16" fill="black">
<rect fill="white" x="31.7539" y="8.67871" width="57" height="16"/>
<path d="M32.4968 23.6787V9.79942H41.5238V11.9071H35.0111V15.6751H41.0562V17.7827H35.0111V21.5711H41.578V23.6787H32.4968ZM48.7921 23.6787H44.0889V9.79942H48.887C50.265 9.79942 51.4487 10.0773 52.4381 10.633C53.4321 11.1842 54.1956 11.9771 54.7288 13.0117C55.2619 14.0463 55.5284 15.2843 55.5284 16.7255C55.5284 18.1713 55.2596 19.4137 54.722 20.4529C54.1889 21.492 53.4185 22.2894 52.411 22.8451C51.408 23.4009 50.2017 23.6787 48.7921 23.6787ZM46.6031 21.5033H48.6701C49.637 21.5033 50.4434 21.3271 51.0895 20.9747C51.7356 20.6178 52.2213 20.0869 52.5466 19.3821C52.8719 18.6728 53.0345 17.7872 53.0345 16.7255C53.0345 15.6638 52.8719 14.7828 52.5466 14.0825C52.2213 13.3777 51.7401 12.8513 51.1031 12.5034C50.4705 12.151 49.6844 11.9748 48.7447 11.9748H46.6031V21.5033ZM66.6664 9.79942H69.1807V18.867C69.1807 19.861 68.9458 20.7352 68.4759 21.4897C68.0105 22.2442 67.3554 22.8338 66.5106 23.2585C65.6657 23.6787 64.6785 23.8888 63.549 23.8888C62.415 23.8888 61.4256 23.6787 60.5807 23.2585C59.7358 22.8338 59.0807 22.2442 58.6154 21.4897C58.15 20.7352 57.9173 19.861 57.9173 18.867V9.79942H60.4316V18.657C60.4316 19.2353 60.5581 19.7503 60.8111 20.2021C61.0686 20.6539 61.4301 21.0086 61.8954 21.2661C62.3608 21.5191 62.912 21.6456 63.549 21.6456C64.1861 21.6456 64.7373 21.5191 65.2026 21.2661C65.6725 21.0086 66.0339 20.6539 66.2869 20.2021C66.5399 19.7503 66.6664 19.2353 66.6664 18.657V9.79942ZM74.4278 9.79942V23.6787H71.9135V9.79942H74.4278ZM76.5405 11.9071V9.79942H87.6141V11.9071H83.3243V23.6787H80.8304V11.9071H76.5405Z"/>
</mask>
<path d="M32.4968 23.6787V9.79942H41.5238V11.9071H35.0111V15.6751H41.0562V17.7827H35.0111V21.5711H41.578V23.6787H32.4968ZM48.7921 23.6787H44.0889V9.79942H48.887C50.265 9.79942 51.4487 10.0773 52.4381 10.633C53.4321 11.1842 54.1956 11.9771 54.7288 13.0117C55.2619 14.0463 55.5284 15.2843 55.5284 16.7255C55.5284 18.1713 55.2596 19.4137 54.722 20.4529C54.1889 21.492 53.4185 22.2894 52.411 22.8451C51.408 23.4009 50.2017 23.6787 48.7921 23.6787ZM46.6031 21.5033H48.6701C49.637 21.5033 50.4434 21.3271 51.0895 20.9747C51.7356 20.6178 52.2213 20.0869 52.5466 19.3821C52.8719 18.6728 53.0345 17.7872 53.0345 16.7255C53.0345 15.6638 52.8719 14.7828 52.5466 14.0825C52.2213 13.3777 51.7401 12.8513 51.1031 12.5034C50.4705 12.151 49.6844 11.9748 48.7447 11.9748H46.6031V21.5033ZM66.6664 9.79942H69.1807V18.867C69.1807 19.861 68.9458 20.7352 68.4759 21.4897C68.0105 22.2442 67.3554 22.8338 66.5106 23.2585C65.6657 23.6787 64.6785 23.8888 63.549 23.8888C62.415 23.8888 61.4256 23.6787 60.5807 23.2585C59.7358 22.8338 59.0807 22.2442 58.6154 21.4897C58.15 20.7352 57.9173 19.861 57.9173 18.867V9.79942H60.4316V18.657C60.4316 19.2353 60.5581 19.7503 60.8111 20.2021C61.0686 20.6539 61.4301 21.0086 61.8954 21.2661C62.3608 21.5191 62.912 21.6456 63.549 21.6456C64.1861 21.6456 64.7373 21.5191 65.2026 21.2661C65.6725 21.0086 66.0339 20.6539 66.2869 20.2021C66.5399 19.7503 66.6664 19.2353 66.6664 18.657V9.79942ZM74.4278 9.79942V23.6787H71.9135V9.79942H74.4278ZM76.5405 11.9071V9.79942H87.6141V11.9071H83.3243V23.6787H80.8304V11.9071H76.5405Z" fill="#0C0B0B"/>
<path d="M32.4968 23.6787H32.1846V23.9909H32.4968V23.6787ZM32.4968 9.79942V9.48723H32.1846V9.79942H32.4968ZM41.5238 9.79942H41.836V9.48723H41.5238V9.79942ZM41.5238 11.9071V12.2193H41.836V11.9071H41.5238ZM35.0111 11.9071V11.5949H34.6989V11.9071H35.0111ZM35.0111 15.6751H34.6989V15.9873H35.0111V15.6751ZM41.0562 15.6751H41.3684V15.3629H41.0562V15.6751ZM41.0562 17.7827V18.0949H41.3684V17.7827H41.0562ZM35.0111 17.7827V17.4705H34.6989V17.7827H35.0111ZM35.0111 21.5711H34.6989V21.8833H35.0111V21.5711ZM41.578 21.5711H41.8902V21.2589H41.578V21.5711ZM41.578 23.6787V23.9909H41.8902V23.6787H41.578ZM32.4968 23.6787H32.809V9.79942H32.4968H32.1846V23.6787H32.4968ZM32.4968 9.79942V10.1116H41.5238V9.79942V9.48723H32.4968V9.79942ZM41.5238 9.79942H41.2116V11.9071H41.5238H41.836V9.79942H41.5238ZM41.5238 11.9071V11.5949H35.0111V11.9071V12.2193H41.5238V11.9071ZM35.0111 11.9071H34.6989V15.6751H35.0111H35.3233V11.9071H35.0111ZM35.0111 15.6751V15.9873H41.0562V15.6751V15.3629H35.0111V15.6751ZM41.0562 15.6751H40.744V17.7827H41.0562H41.3684V15.6751H41.0562ZM41.0562 17.7827V17.4705H35.0111V17.7827V18.0949H41.0562V17.7827ZM35.0111 17.7827H34.6989V21.5711H35.0111H35.3233V17.7827H35.0111ZM35.0111 21.5711V21.8833H41.578V21.5711V21.2589H35.0111V21.5711ZM41.578 21.5711H41.2658V23.6787H41.578H41.8902V21.5711H41.578ZM41.578 23.6787V23.3665H32.4968V23.6787V23.9909H41.578V23.6787ZM44.0889 23.6787H43.7767V23.9909H44.0889V23.6787ZM44.0889 9.79942V9.48723H43.7767V9.79942H44.0889ZM52.4381 10.633L52.2853 10.9052L52.2867 10.906L52.4381 10.633ZM54.7288 13.0117L54.4512 13.1547V13.1547L54.7288 13.0117ZM54.722 20.4529L54.4447 20.3094L54.4442 20.3104L54.722 20.4529ZM52.411 22.8451L52.2602 22.5718L52.2597 22.5721L52.411 22.8451ZM46.6031 21.5033H46.291V21.8155H46.6031V21.5033ZM51.0895 20.9747L51.239 21.2488L51.2405 21.248L51.0895 20.9747ZM52.5466 19.3821L52.83 19.5129L52.8303 19.5122L52.5466 19.3821ZM52.5466 14.0825L52.2631 14.2133L52.2634 14.214L52.5466 14.0825ZM51.1031 12.5034L50.9511 12.7762L50.9534 12.7774L51.1031 12.5034ZM46.6031 11.9748V11.6626H46.291V11.9748H46.6031ZM48.7921 23.6787V23.3665H44.0889V23.6787V23.9909H48.7921V23.6787ZM44.0889 23.6787H44.4011V9.79942H44.0889H43.7767V23.6787H44.0889ZM44.0889 9.79942V10.1116H48.887V9.79942V9.48723H44.0889V9.79942ZM48.887 9.79942V10.1116C50.2229 10.1116 51.3515 10.3808 52.2853 10.9052L52.4381 10.633L52.591 10.3608C51.5459 9.77378 50.3071 9.48723 48.887 9.48723V9.79942ZM52.4381 10.633L52.2867 10.906C53.2254 11.4265 53.9457 12.1735 54.4512 13.1547L54.7288 13.0117L55.0063 12.8687C54.4456 11.7806 53.6388 10.9418 52.5895 10.36L52.4381 10.633ZM54.7288 13.0117L54.4512 13.1547C54.9568 14.1358 55.2163 15.3224 55.2163 16.7255H55.5284H55.8406C55.8406 15.2462 55.567 13.9569 55.0063 12.8687L54.7288 13.0117ZM55.5284 16.7255H55.2163C55.2163 18.1329 54.9546 19.3238 54.4447 20.3094L54.722 20.4529L54.9993 20.5963C55.5646 19.5036 55.8406 18.2096 55.8406 16.7255H55.5284ZM54.722 20.4529L54.4442 20.3104C53.939 21.2951 53.2125 22.0465 52.2603 22.5718L52.411 22.8451L52.5618 23.1185C53.6246 22.5323 54.4387 21.6889 54.9998 20.5954L54.722 20.4529ZM52.411 22.8451L52.2597 22.5721C51.3125 23.0969 50.1608 23.3665 48.7921 23.3665V23.6787V23.9909C50.2426 23.9909 51.5035 23.7048 52.5623 23.1182L52.411 22.8451ZM46.6031 21.5033V21.8155H48.6701V21.5033V21.1911H46.6031V21.5033ZM48.6701 21.5033V21.8155C49.6734 21.8155 50.5349 21.6328 51.239 21.2488L51.0895 20.9747L50.94 20.7006C50.352 21.0214 49.6006 21.1911 48.6701 21.1911V21.5033ZM51.0895 20.9747L51.2405 21.248C51.9479 20.8571 52.4784 20.2748 52.83 19.5129L52.5466 19.3821L52.2631 19.2513C51.9641 19.899 51.5233 20.3784 50.9386 20.7014L51.0895 20.9747ZM52.5466 19.3821L52.8303 19.5122C53.1798 18.7502 53.3467 17.8169 53.3467 16.7255H53.0345H52.7223C52.7223 17.7576 52.5639 18.5954 52.2628 19.252L52.5466 19.3821ZM53.0345 16.7255H53.3467C53.3467 15.6344 53.1799 14.7049 52.8297 13.951L52.5466 14.0825L52.2634 14.214C52.5638 14.8607 52.7223 15.6932 52.7223 16.7255H53.0345ZM52.5466 14.0825L52.83 13.9517C52.4787 13.1905 51.9528 12.6117 51.2527 12.2294L51.1031 12.5034L50.9534 12.7774C51.5275 13.0909 51.9638 13.5649 52.2631 14.2133L52.5466 14.0825ZM51.1031 12.5034L51.255 12.2307C50.5642 11.8458 49.7222 11.6626 48.7447 11.6626V11.9748V12.287C49.6466 12.287 50.3769 12.4562 50.9511 12.7762L51.1031 12.5034ZM48.7447 11.9748V11.6626H46.6031V11.9748V12.287H48.7447V11.9748ZM46.6031 11.9748H46.291V21.5033H46.6031H46.9153V11.9748H46.6031ZM66.6664 9.79942V9.48723H66.3543V9.79942H66.6664ZM69.1807 9.79942H69.4929V9.48723H69.1807V9.79942ZM68.4759 21.4897L68.2109 21.3247L68.2102 21.3259L68.4759 21.4897ZM66.5106 23.2585L66.6496 23.5381L66.6508 23.5375L66.5106 23.2585ZM60.5807 23.2585L60.4405 23.5375L60.4417 23.5381L60.5807 23.2585ZM58.6154 21.4897L58.8811 21.3259L58.6154 21.4897ZM57.9173 9.79942V9.48723H57.6051V9.79942H57.9173ZM60.4316 9.79942H60.7438V9.48723H60.4316V9.79942ZM60.8111 20.2021L60.5387 20.3547L60.5399 20.3567L60.8111 20.2021ZM61.8954 21.2661L61.7443 21.5393L61.7463 21.5404L61.8954 21.2661ZM65.2026 21.2661L65.3517 21.5404L65.3527 21.5399L65.2026 21.2661ZM66.2869 20.2021L66.5593 20.3546L66.2869 20.2021ZM66.6664 9.79942V10.1116H69.1807V9.79942V9.48723H66.6664V9.79942ZM69.1807 9.79942H68.8685V18.867H69.1807H69.4929V9.79942H69.1807ZM69.1807 18.867H68.8685C68.8685 19.8098 68.6464 20.6254 68.2109 21.3247L68.4759 21.4897L68.7409 21.6548C69.2452 20.845 69.4929 19.9122 69.4929 18.867H69.1807ZM68.4759 21.4897L68.2102 21.3259C67.7772 22.0278 67.1671 22.5791 66.3704 22.9796L66.5106 23.2585L66.6508 23.5375C67.5437 23.0886 68.2439 22.4607 68.7416 21.6536L68.4759 21.4897ZM66.5106 23.2585L66.3716 22.979C65.5776 23.3739 64.6397 23.5766 63.549 23.5766V23.8888V24.201C64.7174 24.201 65.7538 23.9836 66.6496 23.5381L66.5106 23.2585ZM63.549 23.8888V23.5766C62.4536 23.5766 61.5135 23.3738 60.7197 22.979L60.5807 23.2585L60.4417 23.5381C61.3376 23.9836 62.3764 24.201 63.549 24.201V23.8888ZM60.5807 23.2585L60.7209 22.9796C59.9241 22.5791 59.314 22.0278 58.8811 21.3259L58.6154 21.4897L58.3497 21.6536C58.8474 22.4607 59.5475 23.0886 60.4405 23.5375L60.5807 23.2585ZM58.6154 21.4897L58.8811 21.3259C58.4497 20.6264 58.2295 19.8103 58.2295 18.867H57.9173H57.6051C57.6051 19.9117 57.8503 20.8441 58.3497 21.6536L58.6154 21.4897ZM57.9173 18.867H58.2295V9.79942H57.9173H57.6051V18.867H57.9173ZM57.9173 9.79942V10.1116H60.4316V9.79942V9.48723H57.9173V9.79942ZM60.4316 9.79942H60.1194V18.657H60.4316H60.7438V9.79942H60.4316ZM60.4316 18.657H60.1194C60.1194 19.2823 60.2567 19.851 60.5387 20.3546L60.8111 20.2021L61.0835 20.0496C60.8595 19.6496 60.7438 19.1882 60.7438 18.657H60.4316ZM60.8111 20.2021L60.5399 20.3567C60.8265 20.8595 61.23 21.2546 61.7443 21.5393L61.8954 21.2661L62.0466 20.9929C61.6302 20.7625 61.3108 20.4483 61.0823 20.0475L60.8111 20.2021ZM61.8954 21.2661L61.7463 21.5404C62.2659 21.8228 62.8704 21.9578 63.549 21.9578V21.6456V21.3334C62.9536 21.3334 62.4557 21.2154 62.0446 20.9918L61.8954 21.2661ZM63.549 21.6456V21.9578C64.2276 21.9578 64.8322 21.8228 65.3517 21.5404L65.2026 21.2661L65.0535 20.9918C64.6423 21.2154 64.1445 21.3334 63.549 21.3334V21.6456ZM65.2026 21.2661L65.3527 21.5399C65.872 21.2552 66.2767 20.8594 66.5593 20.3546L66.2869 20.2021L66.0145 20.0496C65.7912 20.4485 65.473 20.7619 65.0526 20.9923L65.2026 21.2661ZM66.2869 20.2021L66.5593 20.3546C66.8414 19.851 66.9786 19.2823 66.9786 18.657H66.6664H66.3543C66.3543 19.1882 66.2385 19.6496 66.0145 20.0496L66.2869 20.2021ZM66.6664 18.657H66.9786V9.79942H66.6664H66.3543V18.657H66.6664ZM74.4278 9.79942H74.74V9.48723H74.4278V9.79942ZM74.4278 23.6787V23.9909H74.74V23.6787H74.4278ZM71.9135 23.6787H71.6013V23.9909H71.9135V23.6787ZM71.9135 9.79942V9.48723H71.6013V9.79942H71.9135ZM74.4278 9.79942H74.1156V23.6787H74.4278H74.74V9.79942H74.4278ZM74.4278 23.6787V23.3665H71.9135V23.6787V23.9909H74.4278V23.6787ZM71.9135 23.6787H72.2257V9.79942H71.9135H71.6013V23.6787H71.9135ZM71.9135 9.79942V10.1116H74.4278V9.79942V9.48723H71.9135V9.79942ZM76.5405 11.9071H76.2283V12.2193H76.5405V11.9071ZM76.5405 9.79942V9.48723H76.2283V9.79942H76.5405ZM87.6141 9.79942H87.9263V9.48723H87.6141V9.79942ZM87.6141 11.9071V12.2193H87.9263V11.9071H87.6141ZM83.3243 11.9071V11.5949H83.0121V11.9071H83.3243ZM83.3243 23.6787V23.9909H83.6365V23.6787H83.3243ZM80.8304 23.6787H80.5182V23.9909H80.8304V23.6787ZM80.8304 11.9071H81.1426V11.5949H80.8304V11.9071ZM76.5405 11.9071H76.8527V9.79942H76.5405H76.2283V11.9071H76.5405ZM76.5405 9.79942V10.1116H87.6141V9.79942V9.48723H76.5405V9.79942ZM87.6141 9.79942H87.302V11.9071H87.6141H87.9263V9.79942H87.6141ZM87.6141 11.9071V11.5949H83.3243V11.9071V12.2193H87.6141V11.9071ZM83.3243 11.9071H83.0121V23.6787H83.3243H83.6365V11.9071H83.3243ZM83.3243 23.6787V23.3665H80.8304V23.6787V23.9909H83.3243V23.6787ZM80.8304 23.6787H81.1426V11.9071H80.8304H80.5182V23.6787H80.8304ZM80.8304 11.9071V11.5949H76.5405V11.9071V12.2193H80.8304V11.9071Z" fill="#FFFDFB" mask="url(#path-3-outside-1_358_2177)"/>
</svg>
