<svg width="138" height="33" viewBox="0 0 138 33" fill="none" xmlns="http://www.w3.org/2000/svg">
<g clip-path="url(#clip0_270_5567)">
<path d="M52.2492 10.5489C55.8807 10.5489 59.7043 11.7363 62.0726 14.0341C62.0882 14.0492 62.086 14.0718 62.0679 14.0847L58.5027 16.6263C58.4846 16.6394 58.4567 16.6378 58.4407 16.6228C57.7163 15.9444 56.817 15.4012 55.8053 15.0311C54.7801 14.6563 53.6649 14.4685 52.5393 14.4813C48.343 14.4813 45.5454 16.851 45.5454 20.3155C45.5454 22.0462 46.241 23.4982 47.4502 24.5151C48.1158 25.0523 48.9106 25.4739 49.7859 25.754C50.6611 26.0341 51.5983 26.1668 52.5393 26.1436C53.6539 26.1519 54.7592 25.9768 55.7868 25.6291C56.802 25.2859 57.721 24.7816 58.4889 24.1462C58.5052 24.1327 58.5315 24.1318 58.549 24.1442L62.193 26.7345C62.2118 26.7477 62.2137 26.7709 62.1971 26.7861C60.164 28.6359 56.5648 30.1031 52.0593 30.1031C48.5736 30.1031 45.5526 29.0951 43.4322 27.3793C41.3118 25.6637 40.0542 23.234 40.0542 20.3485C40.0542 14.5144 45.1139 10.5489 52.2492 10.5489ZM85.2084 10.5506C92.1137 10.5507 96.5791 14.5519 96.5791 20.0766C96.5694 20.6505 96.5215 21.2237 96.4361 21.7934C96.4333 21.8116 96.4145 21.8251 96.3923 21.8251H79.4127C79.3848 21.8251 79.3639 21.8469 79.3701 21.8695C80.0964 24.5215 82.5839 26.138 86.0229 26.138C87.1429 26.1573 88.2528 25.9678 89.2676 25.5833C90.2684 25.2041 91.1499 24.6455 91.8449 23.9501C91.8605 23.9345 91.8884 23.9324 91.9072 23.9453L92.047 24.0415L95.5402 26.5471C95.558 26.5597 95.5606 26.5822 95.5458 26.5971C93.5694 28.6168 90.2862 30.1031 85.7341 30.1031C78.9211 30.1031 73.7816 26.2161 73.7816 20.3105C73.7816 17.4132 74.9926 14.9835 77.0107 13.268C78.0755 12.3858 79.3526 11.6897 80.7623 11.2223C82.172 10.755 83.6854 10.5264 85.2084 10.5506ZM70.6148 3.0874C70.6392 3.0874 70.6589 3.10364 70.6589 3.12368V29.8095C70.6589 29.8296 70.6392 29.8458 70.6148 29.8458H65.3939C65.3695 29.8458 65.3498 29.8296 65.3498 29.8095V3.12368C65.3498 3.10367 65.3695 3.08745 65.3939 3.0874H70.6148ZM113.086 10.5494C113.111 10.5491 113.131 10.5655 113.131 10.5856V15.3685C113.131 15.3896 113.109 15.4063 113.083 15.4048C112.475 15.3669 111.869 15.3297 111.496 15.3297C107.41 15.3298 105.011 17.6991 105.011 20.8093V29.8095C105.011 29.8296 104.991 29.8458 104.967 29.8458H99.7462C99.7218 29.8458 99.7021 29.8296 99.7021 29.8095V10.855C99.7021 10.835 99.7218 10.8188 99.7462 10.8188H104.967C104.991 10.8188 105.011 10.835 105.011 10.855V13.6746C105.011 13.6892 105.026 13.701 105.043 13.701C105.053 13.701 105.063 13.6971 105.069 13.6905C106.9 11.6758 109.603 10.5549 112.459 10.5549L113.086 10.5494ZM121.519 3.0874C121.543 3.08743 121.563 3.10364 121.563 3.12368V19.4084C121.563 19.4414 121.612 19.4572 121.639 19.4328L131.243 10.8077C131.252 10.8002 131.263 10.7958 131.276 10.7958H137.554C137.592 10.7958 137.612 10.8332 137.587 10.8565L129.215 18.466C129.202 18.478 129.2 18.4958 129.21 18.5096L137.697 29.7904C137.715 29.8146 137.694 29.8458 137.659 29.8458H131.703C131.688 29.8458 131.674 29.8394 131.666 29.8285L125.647 21.8591C125.639 21.8485 125.625 21.842 125.61 21.842H125.553C125.541 21.842 125.529 21.8462 125.521 21.8536L121.574 25.3472C121.567 25.3538 121.563 25.3627 121.563 25.3718V29.8095C121.563 29.8296 121.543 29.8458 121.519 29.8458H116.297C116.273 29.8458 116.254 29.8296 116.254 29.8095V3.12368C116.254 3.10364 116.273 3.08743 116.297 3.0874H121.519ZM85.4859 14.4767C84.6238 14.4542 83.7664 14.5828 82.9713 14.8534C82.1764 15.1242 81.463 15.531 80.88 16.0455C80.1915 16.6885 79.7046 17.456 79.4599 18.2832C79.453 18.3059 79.474 18.3278 79.5022 18.3278H91.0917C91.1198 18.3278 91.1408 18.3057 91.1339 18.283C90.4592 16.0132 88.5388 14.4767 85.4859 14.4767Z" fill="#131316"/>
<path d="M20.0271 21.6562C23.4835 21.6562 26.2856 19.3477 26.2856 16.5C26.2856 13.6523 23.4835 11.3438 20.0271 11.3438C16.5706 11.3438 13.7686 13.6523 13.7686 16.5C13.7686 19.3477 16.5706 21.6562 20.0271 21.6562Z" fill="#6C47FF"/>
<path d="M31.1585 2.78128C31.7841 3.12654 31.8376 3.85285 31.305 4.29155L26.7314 8.05968C26.3181 8.40025 25.6768 8.45403 25.1565 8.23445C23.6181 7.5851 21.8746 7.21875 20.0272 7.21875C13.8055 7.21875 8.7619 11.3741 8.7619 16.5C8.7619 18.022 9.20657 19.4585 9.99473 20.7259C10.2613 21.1546 10.196 21.6829 9.7826 22.0235L5.20895 25.7916C4.67648 26.2304 3.79491 26.1863 3.37584 25.6708C1.2436 23.0482 0 19.8937 0 16.5C0 7.38731 8.96649 0 20.0272 0C24.1464 0 27.9752 1.02458 31.1585 2.78128Z" fill="#BAB1FF"/>
<path d="M31.3052 28.7084C31.8378 29.1472 31.7843 29.8734 31.1587 30.2186C27.9753 31.9754 24.1466 32.9999 20.0274 32.9999C15.9082 32.9999 12.0794 31.9754 8.89611 30.2186C8.27045 29.8734 8.217 29.1472 8.74948 28.7084L13.3231 24.9402C13.7365 24.5997 14.3777 24.5459 14.898 24.7655C16.4365 25.4148 18.18 25.7812 20.0274 25.7812C21.8748 25.7812 23.6183 25.4148 25.1567 24.7655C25.677 24.5459 26.3183 24.5997 26.7317 24.9402L31.3052 28.7084Z" fill="#6C47FF"/>
</g>
<defs>
<clipPath id="clip0_270_5567">
<rect width="138" height="33" fill="white"/>
</clipPath>
</defs>
</svg>
