<svg width="110" height="19" viewBox="0 0 110 19" fill="none" xmlns="http://www.w3.org/2000/svg">
<path d="M1.11461e-05 18.4517V5.36075H3.5199V7.64484H3.65626C3.8949 6.83234 4.29547 6.21871 4.85797 5.80393C5.42047 5.38348 6.06819 5.17325 6.80115 5.17325C6.98297 5.17325 7.17899 5.18461 7.38922 5.20734C7.59944 5.23007 7.7841 5.26132 7.94319 5.30109V8.52268C7.77274 8.47155 7.53694 8.42609 7.23581 8.38632C6.93467 8.34655 6.6591 8.32666 6.4091 8.32666C5.87501 8.32666 5.39774 8.44314 4.97728 8.67609C4.56251 8.90336 4.23297 9.22155 3.98865 9.63064C3.75001 10.0397 3.63069 10.5113 3.63069 11.0454V18.4517H1.11461e-05ZM9.88851 18.4517V0.997114H16.7749C18.0987 0.997114 19.2266 1.24996 20.1584 1.75564C21.0902 2.25564 21.8004 2.95166 22.2891 3.8437C22.7834 4.73007 23.0306 5.7528 23.0306 6.91189C23.0306 8.07098 22.7806 9.09371 22.2806 9.98007C21.7806 10.8664 21.0561 11.5568 20.1073 12.0511C19.1641 12.5454 18.022 12.7926 16.6811 12.7926H12.2919V9.83518H16.0845C16.7948 9.83518 17.38 9.71302 17.8402 9.46871C18.3061 9.21871 18.6527 8.87496 18.88 8.43746C19.1129 7.99427 19.2294 7.48575 19.2294 6.91189C19.2294 6.33234 19.1129 5.82666 18.88 5.39484C18.6527 4.95734 18.3061 4.61927 17.8402 4.38064C17.3743 4.13632 16.7834 4.01416 16.0675 4.01416H13.5788V18.4517H9.88851ZM25.3594 18.4517V5.36075H28.9901V18.4517H25.3594ZM27.1832 3.67325C26.6435 3.67325 26.1804 3.49427 25.794 3.13632C25.4134 2.77268 25.223 2.33802 25.223 1.83234C25.223 1.33234 25.4134 0.903364 25.794 0.54541C26.1804 0.181773 26.6435 -4.52995e-05 27.1832 -4.52995e-05C27.723 -4.52995e-05 28.1832 0.181773 28.5639 0.54541C28.9503 0.903364 29.1435 1.33234 29.1435 1.83234C29.1435 2.33802 28.9503 2.77268 28.5639 3.13632C28.1832 3.49427 27.723 3.67325 27.1832 3.67325ZM35.5291 10.8835V18.4517H31.8984V0.997114H35.4269V7.67041H35.5803C35.8757 6.89768 36.353 6.29257 37.0121 5.85507C37.6712 5.41189 38.4979 5.1903 39.4922 5.1903C40.4013 5.1903 41.1939 5.38916 41.87 5.78689C42.5519 6.17893 43.0803 6.74427 43.4553 7.48291C43.8359 8.21586 44.0234 9.09371 44.0178 10.1164V18.4517H40.3871V10.7642C40.3928 9.95734 40.1882 9.3295 39.7734 8.88064C39.3644 8.43177 38.7905 8.20734 38.0519 8.20734C37.5575 8.20734 37.12 8.31246 36.7394 8.52268C36.3644 8.73291 36.0689 9.03973 35.853 9.44314C35.6428 9.84086 35.5348 10.321 35.5291 10.8835ZM52.7898 18.7073C51.4659 18.7073 50.321 18.4261 49.3551 17.8636C48.3949 17.2954 47.6534 16.5056 47.1307 15.4943C46.608 14.4772 46.3466 13.2983 46.3466 11.9573C46.3466 10.6051 46.608 9.42325 47.1307 8.41189C47.6534 7.39484 48.3949 6.60507 49.3551 6.04257C50.321 5.47439 51.4659 5.1903 52.7898 5.1903C54.1136 5.1903 55.2557 5.47439 56.2159 6.04257C57.1818 6.60507 57.9261 7.39484 58.4489 8.41189C58.9716 9.42325 59.233 10.6051 59.233 11.9573C59.233 13.2983 58.9716 14.4772 58.4489 15.4943C57.9261 16.5056 57.1818 17.2954 56.2159 17.8636C55.2557 18.4261 54.1136 18.7073 52.7898 18.7073ZM52.8068 15.8948C53.4091 15.8948 53.9119 15.7244 54.3154 15.3835C54.7188 15.0369 55.0227 14.5653 55.2273 13.9687C55.4375 13.3721 55.5426 12.6931 55.5426 11.9318C55.5426 11.1704 55.4375 10.4914 55.2273 9.89484C55.0227 9.29825 54.7188 8.82666 54.3154 8.48007C53.9119 8.13348 53.4091 7.96018 52.8068 7.96018C52.1989 7.96018 51.6875 8.13348 51.2727 8.48007C50.8636 8.82666 50.554 9.29825 50.3438 9.89484C50.1392 10.4914 50.0369 11.1704 50.0369 11.9318C50.0369 12.6931 50.1392 13.3721 50.3438 13.9687C50.554 14.5653 50.8636 15.0369 51.2727 15.3835C51.6875 15.7244 52.1989 15.8948 52.8068 15.8948ZM61.5938 18.4517V5.36075H65.054V7.67041H65.2074C65.4801 6.90336 65.9347 6.29825 66.571 5.85507C67.2074 5.41189 67.9688 5.1903 68.8551 5.1903C69.7529 5.1903 70.5171 5.41473 71.1477 5.86359C71.7784 6.30677 72.1989 6.90905 72.4091 7.67041H72.5455C72.8125 6.92041 73.2955 6.32098 73.9943 5.87211C74.6989 5.41757 75.5313 5.1903 76.4915 5.1903C77.7131 5.1903 78.7046 5.5795 79.4659 6.35791C80.233 7.13064 80.6165 8.22723 80.6165 9.64768V18.4517H76.9943V10.3636C76.9943 9.63632 76.8011 9.09086 76.4148 8.72723C76.0284 8.36359 75.5455 8.18177 74.9659 8.18177C74.3068 8.18177 73.7926 8.392 73.4233 8.81246C73.054 9.22723 72.8693 9.77552 72.8693 10.4573V18.4517H69.3494V10.2869C69.3494 9.64484 69.1648 9.13348 68.7955 8.7528C68.4318 8.37211 67.9517 8.18177 67.3551 8.18177C66.9517 8.18177 66.5881 8.28405 66.2642 8.48859C65.946 8.68746 65.6932 8.96871 65.5057 9.33234C65.3182 9.6903 65.2244 10.1108 65.2244 10.5937V18.4517H61.5938ZM89.4503 18.7073C88.1037 18.7073 86.9446 18.4346 85.973 17.8892C85.0071 17.338 84.2628 16.5596 83.7401 15.5539C83.2173 14.5426 82.956 13.3465 82.956 11.9659C82.956 10.6193 83.2173 9.43746 83.7401 8.42041C84.2628 7.40336 84.9986 6.61075 85.9475 6.04257C86.902 5.47439 88.0213 5.1903 89.3054 5.1903C90.169 5.1903 90.973 5.3295 91.7173 5.60791C92.4673 5.88064 93.1207 6.29257 93.6776 6.84371C94.2401 7.39484 94.6776 8.08802 94.9901 8.92325C95.3026 9.7528 95.4588 10.7244 95.4588 11.838V12.8352H84.4048V10.5852H92.0412C92.0412 10.0625 91.9276 9.59939 91.7003 9.19598C91.473 8.79257 91.1577 8.47723 90.7543 8.24996C90.3565 8.017 89.8935 7.90052 89.3651 7.90052C88.8139 7.90052 88.3253 8.02836 87.8992 8.28405C87.4787 8.53405 87.1492 8.87211 86.9105 9.29825C86.6719 9.71871 86.5497 10.1875 86.544 10.7045V12.8437C86.544 13.4914 86.6634 14.0511 86.902 14.5227C87.1463 14.9943 87.4901 15.3579 87.9332 15.6136C88.3764 15.8693 88.902 15.9971 89.51 15.9971C89.9134 15.9971 90.2827 15.9403 90.6179 15.8267C90.9531 15.713 91.2401 15.5426 91.4787 15.3153C91.7173 15.088 91.8992 14.8096 92.0242 14.4801L95.3821 14.7017C95.2117 15.5085 94.8622 16.213 94.3338 16.8153C93.8111 17.4119 93.135 17.8778 92.3054 18.213C91.4815 18.5426 90.5298 18.7073 89.4503 18.7073ZM108.72 9.09371L105.396 9.29825C105.339 9.01416 105.217 8.75848 105.03 8.53121C104.842 8.29825 104.595 8.11359 104.288 7.97723C103.987 7.83518 103.626 7.76416 103.206 7.76416C102.643 7.76416 102.169 7.88348 101.783 8.12211C101.396 8.35507 101.203 8.66757 101.203 9.05961C101.203 9.37211 101.328 9.63632 101.578 9.85223C101.828 10.0681 102.257 10.2414 102.865 10.3721L105.234 10.8494C106.507 11.1108 107.456 11.5312 108.081 12.1108C108.706 12.6903 109.018 13.4517 109.018 14.3948C109.018 15.2528 108.766 16.0056 108.26 16.6534C107.76 17.3011 107.072 17.8068 106.197 18.1704C105.328 18.5284 104.325 18.7073 103.189 18.7073C101.456 18.7073 100.075 18.3465 99.0469 17.625C98.0242 16.8977 97.4247 15.909 97.2486 14.659L100.82 14.4715C100.928 15 101.189 15.4034 101.604 15.6818C102.018 15.9545 102.55 16.0909 103.197 16.0909C103.834 16.0909 104.345 15.9687 104.732 15.7244C105.124 15.4744 105.322 15.1534 105.328 14.7613C105.322 14.4318 105.183 14.1619 104.911 13.9517C104.638 13.7358 104.217 13.571 103.649 13.4573L101.382 13.0056C100.104 12.75 99.152 12.3068 98.527 11.6761C97.9077 11.0454 97.598 10.2414 97.598 9.26416C97.598 8.42325 97.8253 7.69882 98.2798 7.09086C98.7401 6.48291 99.385 6.01416 100.214 5.68461C101.05 5.35507 102.027 5.1903 103.146 5.1903C104.8 5.1903 106.101 5.53973 107.05 6.23859C108.004 6.93746 108.561 7.88916 108.72 9.09371Z" fill="black"/>
</svg>
